<svg id="Calque_1" data-name="Calque 1" xmlns="http://www.w3.org/2000/svg" viewBox="0 0 210.86 210.45"><title>reglage</title><path d="M143.69,575.38c-2.3-.46-4.28-.7-6.17-1.26-10.76-3.17-24.73-20.26-24.5-30.19.07-2.76.3-6,1.75-8.14,4.85-7.18-2-11.93-3.18-17.79-.1-.51-1.69-.77-2.61-1-8.88-2.6-14.53-8.53-15.47-17.57A91,91,0,0,1,94,477.58c1.09-7.92,6.56-13,14.12-15.18,2.82-.82,4.22-2,4.91-4.71a21.54,21.54,0,0,1,2.21-5.53c1.66-2.83,1.68-5.08,0-8.18-4.44-8-2.72-17.53,3.89-24.34,3.47-3.59,7.13-7,10.83-10.35a20.26,20.26,0,0,1,23.63-3c2.93,1.66,5,1.67,7.68,0a15.51,15.51,0,0,1,4.59-1.89c3.18-.77,4.8-2.45,5.78-5.8,2.43-8.28,8.55-13.29,16.94-14.12a95.4,95.4,0,0,1,21.82.52c7.94,1.07,13,6.55,15.2,14.09.82,2.79,2,4.25,4.68,4.94a22,22,0,0,1,5.53,2.2c2.81,1.61,5.06,1.75,8.18,0,7.93-4.46,17.61-2.72,24.36,3.83,3.58,3.48,7,7.13,10.35,10.84a20.33,20.33,0,0,1,3,23.63c-1.61,2.9-1.66,5-.08,7.7,1.15,2,1.44,4.47,2.62,6.43a8.66,8.66,0,0,0,3.94,3.67c10.46,3.73,15.84,11,15.77,22.19,0,5.63,0,11.34-.94,16.86-1.34,7.89-6.58,13-14.15,15.2-2.8.81-4.24,2-4.92,4.69a21.46,21.46,0,0,1-2.21,5.54c-1.64,2.82-1.7,5.07,0,8.18,4.46,8,2.74,17.5-3.87,24.35-3.47,3.59-7.13,7-10.84,10.35a20.29,20.29,0,0,1-23.63,3c-2.92-1.66-5.06-1.7-7.69,0a13.19,13.19,0,0,1-3.7,1.44c-3.95,1-6.14,3.11-7.43,7.39-2,6.56-7,11.48-13.82,12.32a104.92,104.92,0,0,1-24.22.11c-7.68-.87-12.79-6.25-15-13.65-.92-3.09-2.25-4.91-5.38-5.49a8.29,8.29,0,0,1-2.78-1.08c-4.09-2.53-7.92-3.16-12.3-.11C149.11,575,146.06,574.86,143.69,575.38ZM198.34,581h3c9.55,0,10.63-.95,11.56-10.69.36-3.79,2.82-5.22,6-6.39,5.59-2.05,11.32-4,16.52-6.78,4.86-2.65,8.47-2.53,12.44,1.43,3.69,3.69,7.18,3.47,11-.08,2.8-2.62,5.45-5.38,8.13-8.13,4.41-4.51,4.62-8,.25-12.45-3.34-3.42-3.38-6.64-1.26-10.76a93.62,93.62,0,0,0,6.75-16c1.5-5.07,3.88-7.56,9.36-7.66,5.72-.11,7.89-2.84,8-8.61,0-3.5,0-7,0-10.49-.05-6.53-2.44-9.22-8.95-9.21-4.64,0-6.8-2.14-8.2-6.35a89.43,89.43,0,0,0-6.59-16.06c-2.88-5-2.61-8.76,1.5-12.84,3.46-3.43,3.21-7-.11-10.59-2.59-2.82-5.35-5.49-8.06-8.19-4.51-4.5-7.91-4.76-12.43-.41-3.42,3.3-6.6,3.46-10.75,1.35a115,115,0,0,0-16.5-6.9c-4.77-1.55-7.25-3.82-7.14-9.17s-3-7.95-8.58-8c-3.5,0-7,0-10.5,0-6.9,0-9.5,2.33-9.53,9.13,0,4.41-2.07,6.55-6,8a128.44,128.44,0,0,0-17,7c-4.74,2.49-8.19,2.35-11.88-1.71-3.32-3.66-7.38-3.49-11-.11-2.78,2.63-5.44,5.39-8.13,8.12-4.66,4.71-4.81,7.85-.2,12.8,2.9,3.12,3.23,6.07,1.34,9.91A131.51,131.51,0,0,0,124.21,468c-1.55,4.72-3.69,7.35-9.09,7.24s-8.05,2.89-8.13,8.47c0,3.67,0,7.33,0,11,0,6.47,2.46,9.13,9,9.14,4.65,0,6.77,2.2,8.14,6.4a85.84,85.84,0,0,0,6.36,15.62c2.88,5.1,3.1,9-1.32,13.28-3.48,3.37-3.15,7,.19,10.58,2.48,2.7,5.12,5.25,7.71,7.85,4.9,4.92,8,5.1,13.16.32,3.16-2.9,6.09-3.12,9.91-1.18a111.12,111.12,0,0,0,16.46,7c4.92,1.55,7.75,3.65,7.6,9.31-.14,5.27,2.89,7.84,8.12,8C194.34,581.06,196.34,581,198.34,581Z" transform="translate(-93.08 -384.11)"/><path d="M247.42,489.48a48.92,48.92,0,1,1-48.7-48.9A48.53,48.53,0,0,1,247.42,489.48Zm-48.85-35.41c-19.23,0-35.41,16.06-35.5,35.23-.1,19.39,16.23,35.71,35.62,35.62,19.16-.09,35.22-16.27,35.24-35.49S217.71,454.06,198.57,454.07Z" transform="translate(-93.08 -384.11)"/></svg>