<svg id="Calque_1" data-name="Calque 1" xmlns="http://www.w3.org/2000/svg" viewBox="0 0 342.46 342.49"><title>icone_user</title><path d="M498.9,383.91c0,94.7-77.43,171.88-172.87,171-94.21-.88-170.61-78.13-169.58-173.18,1-94,78.16-170.33,173.18-169.29C423.32,213.45,499.15,289.91,498.9,383.91ZM436.25,484.58c33-33.41,52.45-92.82,31.17-151.74-21.77-60.27-81.71-100.62-145.58-97.75-65.85,3-121.42,47.7-138.06,111.33a145.66,145.66,0,0,0-.24,73.54c6.15,24.43,17.89,45.85,35.41,65,.09-1.63.17-2.44.17-3.26,0-8.17-.19-16.34.09-24.49a49.87,49.87,0,0,1,1.85-12.47c4.34-14.51,14.22-24.54,27.29-31.44,13.74-7.24,28.17-11,43.67-6.19a118.49,118.49,0,0,0,71.49,0,47.69,47.69,0,0,1,13-2c12.07-.24,23.16,3.56,33.32,9.77,17.37,10.61,27.28,25.59,26.47,46.67C436,469,436.25,476.53,436.25,484.58Z" transform="translate(-156.44 -212.42)"/><path d="M270.18,339.78c.67-20.88,8.58-39.7,27.16-52.8,23.78-16.79,55-11.46,73.53,12,20.83,26.44,18.62,66-5,89.88a53.55,53.55,0,0,1-79.71-3.67C275.5,372.41,270.47,357.69,270.18,339.78Z" transform="translate(-156.44 -212.42)"/></svg>