<svg id="Calque_1" data-name="Calque 1" xmlns="http://www.w3.org/2000/svg" viewBox="0 0 80.94 92.46"><title>notif</title><path d="M213.5,301A331.37,331.37,0,0,1,173.39,304,331.38,331.38,0,0,1,133.27,301c-1.16-4.83.6-7.55,4.16-9.23,4.2-2,5.79-5.44,6.59-9.85,1.26-7,1.06-13.95.76-20.89a31.68,31.68,0,0,1,22.52-31.84c1.49-2.26,2.47-5.39,6.09-5.38s4.59,3.12,6.08,5.38A31.68,31.68,0,0,1,202,261.07c-.3,6.94-.5,13.93.76,20.89.8,4.41,2.39,7.86,6.59,9.85C212.91,293.49,214.66,296.21,213.5,301Z" transform="translate(-132.92 -223.85)"/><path d="M168.89,315.39c-3.85-1.67-5-4.21-4.66-9h18.31c.36,4.82-.81,7.36-4.65,9A11.39,11.39,0,0,1,168.89,315.39Z" transform="translate(-132.92 -223.85)"/></svg>